<?xml version="1.0" standalone="no"?>
<!DOCTYPE svg PUBLIC "-//W3C//DTD SVG 20010904//EN"
 "http://www.w3.org/TR/2001/REC-SVG-20010904/DTD/svg10.dtd">
<svg version="1.0" xmlns="http://www.w3.org/2000/svg"
 width="2000.000000pt" height="2000.000000pt" viewBox="0 0 2000.000000 2000.000000"
 preserveAspectRatio="xMidYMid meet">

<g transform="translate(0.000000,2000.000000) scale(0.100000,-0.100000)"
fill="#000000" stroke="none">
<path d="M6000 16400 l0 -270 -535 0 -535 0 0 -265 0 -265 -265 0 -265 0 0
-265 0 -265 -265 0 -265 0 0 -535 0 -535 -270 0 -270 0 2 -1332 3 -1333 268
-3 267 -2 0 -800 0 -800 265 0 265 0 0 -265 0 -265 265 0 265 0 2 -532 3 -533
268 -3 267 -2 0 -265 0 -265 265 0 265 0 0 -265 0 -265 265 0 265 0 2 -267 3
-268 268 -3 267 -2 0 -265 0 -265 265 0 265 0 0 -265 0 -265 265 0 265 0 2
-267 3 -268 268 -3 267 -2 0 -265 0 -265 265 0 265 0 0 -265 0 -265 265 0 265
0 2 -267 3 -268 265 0 265 0 3 268 2 267 265 0 265 0 0 265 0 265 265 0 265 0
0 265 0 265 268 2 267 3 3 268 2 267 265 0 265 0 0 265 0 265 265 0 265 0 0
265 0 265 268 2 267 3 3 268 2 267 265 0 265 0 0 265 0 265 265 0 265 0 0 265
0 265 268 2 267 3 3 533 2 532 265 0 265 0 0 265 0 265 265 0 265 0 0 800 0
800 268 2 267 3 3 1333 2 1332 -270 0 -270 0 0 535 0 535 -265 0 -265 0 0 265
0 265 -265 0 -265 0 0 265 0 265 -535 0 -535 0 0 270 0 270 -1065 0 -1065 0 0
-270 0 -270 -535 0 -535 0 0 -265 0 -265 -265 0 -265 0 0 -265 0 -265 -270 0
-270 0 0 265 0 265 -265 0 -265 0 0 265 0 265 -535 0 -535 0 0 270 0 270
-1065 0 -1065 0 0 -270z m2263 -1867 l407 -6 0 -799 0 -798 -265 0 -265 0 0
-265 0 -265 265 0 265 0 0 -270 0 -270 -800 0 -800 0 0 -265 0 -265 -270 0
-270 0 0 270 0 270 265 0 265 0 0 265 0 265 -265 0 -265 0 0 265 0 265 -265 0
-265 0 0 -800 0 -800 -270 0 -270 0 0 1335 0 1335 270 0 270 0 0 270 0 270
928 0 c511 0 1112 -3 1335 -7z"/>
<path d="M7600 13200 l0 -260 265 0 265 0 0 260 0 260 -265 0 -265 0 0 -260z"/>
<path d="M7070 12665 l0 -265 265 0 265 0 0 265 0 265 -265 0 -265 0 0 -265z"/>
</g>
</svg>
